<?xml version="1.0" encoding="UTF-8" standalone="no"?><!DOCTYPE svg PUBLIC "-//W3C//DTD SVG 1.1//EN" "http://www.w3.org/Graphics/SVG/1.1/DTD/svg11.dtd"><svg width="100%" height="100%" viewBox="0 0 5279 1590" version="1.1" xmlns="http://www.w3.org/2000/svg" xmlns:xlink="http://www.w3.org/1999/xlink" xml:space="preserve" xmlns:serif="http://www.serif.com/" style="fill-rule:evenodd;clip-rule:evenodd;stroke-linejoin:round;stroke-miterlimit:2;"><path d="M786.589,1586.98c437.788,-0 784.513,-360.607 784.513,-799.263c0,-427.292 -346.725,-785.631 -784.513,-785.631c-437.788,0 -784.506,358.339 -784.506,785.631c0,438.656 346.718,799.263 784.506,799.263Zm-0,-1365.2c310.761,0 567.09,254.562 567.09,565.94c0,322.742 -256.329,579.572 -567.09,579.572c-310.762,-0 -564.815,-256.83 -564.815,-579.572c0,-311.378 254.053,-565.94 564.815,-565.94Z" style="fill:#fff;fill-rule:nonzero;stroke:#fff;stroke-width:4.17px;"/><path d="M3210.85,459.891c-58.963,-22.678 -122.46,6.803 -145.138,65.766l-238.117,632.71l-235.849,-628.175c-9.071,-31.749 -34.017,-58.962 -65.765,-70.301c-2.268,0 -2.268,0 -4.536,-2.268l-4.536,0c-2.267,-2.267 -2.267,-2.267 -4.535,-2.267l-4.536,-0c-2.267,-0 -2.267,-2.268 -2.267,-2.268l-24.946,-0c-11.339,-0 -22.678,2.268 -34.017,6.803c-34.016,11.339 -56.694,38.552 -68.033,70.301l-235.849,628.175l-238.117,-632.71c-20.41,-58.963 -86.175,-88.444 -142.87,-65.766c-58.962,20.41 -88.443,86.176 -65.765,145.138l340.166,907.111c15.875,45.356 58.963,74.837 106.586,74.837c47.623,-0 90.711,-31.749 108.853,-74.837l233.582,-628.174l235.848,628.174c15.875,45.356 58.963,74.837 106.586,74.837c47.623,-0 90.711,-31.749 108.853,-74.837l340.167,-907.111c20.41,-58.962 -9.071,-124.728 -65.765,-145.138Z" style="fill:#fff;fill-rule:nonzero;stroke:#fff;stroke-width:4.17px;"/><path d="M4707.58,446.568c-313.082,-0 -569.071,253.776 -569.071,569.781l0,456.957c0,63.656 49.828,113.671 110.981,113.671c63.417,-0 113.246,-50.015 113.246,-113.671l0,-456.957c0,-190.967 154.272,-345.555 344.844,-345.555c190.572,0 344.844,154.588 344.844,345.555l0,456.957c0,63.656 49.828,113.671 110.98,113.671c63.418,-0 113.247,-50.015 113.247,-113.671l-0,-456.957c-0,-316.005 -255.988,-569.781 -569.071,-569.781Z" style="fill:#fff;fill-rule:nonzero;stroke:#fff;stroke-width:4.17px;"/><path d="M3653.02,564.053c0,-29.653 -11.78,-58.092 -32.748,-79.06c-20.968,-20.968 -49.407,-32.748 -79.06,-32.748c-1.433,-0 -2.867,-0 -4.3,-0c-29.654,-0 -58.093,11.78 -79.061,32.748c-20.968,20.968 -32.748,49.407 -32.748,79.06c0,216.469 0,690.654 0,908.817c0,30.223 12.007,59.209 33.378,80.581c21.371,21.371 50.357,33.377 80.581,33.377l-0,0c30.224,0 59.209,-12.006 80.581,-33.377c21.371,-21.372 33.377,-50.358 33.377,-80.581l0,-908.817Z" style="fill:#fff;stroke:#fff;stroke-width:4.17px;stroke-linecap:round;stroke-miterlimit:1.5;"/><path d="M4009.72,564.053c0,-29.653 -11.779,-58.092 -32.748,-79.06c-20.968,-20.968 -49.407,-32.748 -79.06,-32.748c-1.433,-0 -2.867,-0 -4.3,-0c-29.654,-0 -58.093,11.78 -79.061,32.748c-20.968,20.968 -32.748,49.407 -32.748,79.06c0,216.469 0,690.654 0,908.817c0,30.223 12.007,59.209 33.378,80.581c21.371,21.371 50.357,33.377 80.581,33.377l0,0c30.224,0 59.209,-12.006 80.581,-33.377c21.371,-21.372 33.377,-50.358 33.377,-80.581l0,-908.817Z" style="fill:#fff;stroke:#fff;stroke-width:4.17px;stroke-linecap:round;stroke-miterlimit:1.5;"/><circle cx="3546.32" cy="145.184" r="143.1" style="fill:#ee5050;stroke:#ee5050;stroke-width:4.17px;stroke-linecap:round;stroke-miterlimit:1.5;"/><circle cx="3892.15" cy="145.184" r="143.1" style="fill:#ee5050;stroke:#ee5050;stroke-width:4.17px;stroke-linecap:round;stroke-miterlimit:1.5;"/></svg>